<?xml version="1.0" standalone="no"?>
<!DOCTYPE svg PUBLIC "-//W3C//DTD SVG 20010904//EN"
 "http://www.w3.org/TR/2001/REC-SVG-20010904/DTD/svg10.dtd">
<svg version="1.0" xmlns="http://www.w3.org/2000/svg"
 width="700.000000pt" height="700.000000pt" viewBox="0 0 700.000000 700.000000"
 preserveAspectRatio="xMidYMid meet">
<metadata>
Created by potrace 1.14, written by Peter Selinger 2001-2017
</metadata>
<g transform="translate(0.000000,700.000000) scale(0.100000,-0.100000)"
fill="#000000" stroke="none">
<path d="M3225 5840 c-220 -19 -477 -83 -680 -169 -742 -318 -1249 -1004
-1336 -1809 -15 -141 -7 -450 16 -582 60 -359 200 -686 419 -980 81 -110 437
-475 574 -591 519 -434 1222 -605 1897 -459 329 71 668 240 944 469 611 506
902 1336 745 2121 -74 372 -233 705 -473 990 -114 138 -470 484 -581 567 -446
333 -981 488 -1525 443z m465 -54 c370 -50 725 -193 1013 -409 113 -85 120
-93 57 -57 -267 150 -538 244 -825 285 -159 23 -450 23 -600 0 -650 -97 -1190
-437 -1549 -974 -386 -578 -473 -1331 -229 -1991 36 -97 132 -297 178 -370 44
-70 19 -44 -61 62 -395 530 -528 1206 -363 1845 219 849 940 1490 1809 1607
139 18 437 19 570 2z m90 -476 c335 -29 632 -131 902 -309 126 -84 198 -159
309 -325 467 -694 427 -1617 -98 -2266 -80 -98 -239 -252 -333 -321 -221 -163
-457 -269 -729 -326 -113 -24 -148 -27 -341 -27 -227 -1 -288 6 -465 51 -431
111 -816 388 -1070 770 -96 143 -147 273 -189 475 -36 174 -47 427 -26 598 93
745 589 1354 1295 1589 249 83 494 113 745 91z m1403 -792 c216 -304 331 -638
353 -1028 12 -214 -19 -420 -93 -620 -222 -596 -730 -1090 -1326 -1288 -161
-54 -282 -72 -482 -72 -237 0 -421 31 -635 105 -362 126 -689 373 -926 700
-16 22 4 6 44 -36 597 -632 1528 -775 2274 -351 616 350 994 1037 965 1752
-14 333 -103 646 -262 916 l-64 109 44 -50 c25 -27 73 -89 108 -137z m-133
-2382 c0 -2 -8 -10 -17 -17 -16 -13 -17 -12 -4 4 13 16 21 21 21 13z m-110
-110 c0 -2 -8 -10 -17 -17 -16 -13 -17 -12 -4 4 13 16 21 21 21 13z"/>
</g>
</svg>
